<svg width="926" height="238" viewBox="0 0 926 238" fill="none" xmlns="http://www.w3.org/2000/svg">
<path d="M288.068 48.255C284.676 35.6566 274.743 25.7232 262.144 22.3313C239.128 16.0321 147.062 16.0321 147.062 16.0321C147.062 16.0321 54.997 16.0321 31.9806 22.089C19.6245 25.4809 9.44882 35.6566 6.05694 48.255C0 71.2714 0 119 0 119C0 119 0 166.971 6.05694 189.745C9.44882 202.343 19.3822 212.277 31.9806 215.669C55.2392 221.968 147.062 221.968 147.062 221.968C147.062 221.968 239.128 221.968 262.144 215.911C274.743 212.519 284.676 202.586 288.068 189.987C294.125 166.971 294.125 119.242 294.125 119.242C294.125 119.242 294.367 71.2714 288.068 48.255Z" fill="#FF0000"/>
<path d="M117.747 74.9055V163.094L194.306 119L117.747 74.9055Z" fill="white"/>
<path d="M427.135 203.555C421.32 199.678 417.202 193.621 414.779 185.142C412.356 176.904 411.145 165.759 411.145 152.192V133.537C411.145 119.727 412.598 108.582 415.263 100.102C418.171 91.6226 422.532 85.5657 428.346 81.6892C434.403 77.8128 442.156 75.8746 451.847 75.8746C461.296 75.8746 469.049 77.8128 474.864 81.6892C480.678 85.5657 484.797 91.8649 487.462 100.102C490.127 108.34 491.581 119.485 491.581 133.537V152.192C491.581 166.002 490.369 176.904 487.704 185.384C485.039 193.621 480.921 199.921 475.106 203.797C469.291 207.673 461.296 209.612 451.363 209.612C441.187 209.369 432.95 207.431 427.135 203.555ZM459.842 183.203C461.538 179.085 462.265 172.059 462.265 162.61V122.392C462.265 113.185 461.538 106.402 459.842 102.041C458.147 97.6795 455.481 95.7413 451.363 95.7413C447.486 95.7413 444.579 97.9218 443.125 102.041C441.429 106.402 440.703 113.185 440.703 122.392V162.61C440.703 172.059 441.429 179.085 443.125 183.203C444.579 187.322 447.486 189.503 451.605 189.503C455.481 189.503 458.147 187.564 459.842 183.203Z" fill="#282828"/>
<path d="M874.379 152.434V158.976C874.379 167.213 874.621 173.512 875.106 177.631C875.591 181.75 876.56 184.899 878.256 186.595C879.709 188.534 882.132 189.503 885.524 189.503C889.885 189.503 892.792 187.807 894.488 184.415C896.184 181.023 896.911 175.451 897.153 167.455L922.108 168.909C922.35 170.12 922.35 171.574 922.35 173.512C922.35 185.384 919.2 194.348 912.659 200.163C906.117 205.978 896.911 208.885 885.039 208.885C870.745 208.885 860.812 204.282 854.997 195.317C849.182 186.353 846.275 172.543 846.275 153.646V131.114C846.275 111.732 849.182 97.6795 855.239 88.7153C861.296 79.751 871.472 75.39 885.766 75.39C895.7 75.39 903.452 77.3282 908.783 80.9624C914.113 84.5966 917.747 90.4112 919.927 97.9218C922.108 105.675 923.077 116.335 923.077 129.902V151.95H874.379V152.434ZM878.013 98.1641C876.56 100.102 875.591 103.01 875.106 107.128C874.621 111.247 874.379 117.546 874.379 126.026V135.233H895.7V126.026C895.7 117.789 895.457 111.489 894.973 107.128C894.488 102.767 893.277 99.86 891.823 98.1641C890.369 96.4682 887.947 95.499 885.039 95.499C881.647 95.2568 879.467 96.2259 878.013 98.1641Z" fill="#282828"/>
<path d="M356.39 150.011L323.44 30.5687H352.271L363.901 84.5966C366.808 97.9218 368.988 109.309 370.442 118.758H371.169C372.138 111.974 374.319 100.829 377.71 84.8389L389.824 30.5687H418.655L385.221 150.011V207.189H356.632V150.011H356.39Z" fill="#282828"/>
<path d="M585.342 78.2974V207.431H562.568L560.145 191.683H559.418C553.362 203.555 543.913 209.612 531.557 209.612C523.077 209.612 516.778 206.704 512.659 201.132C508.54 195.56 506.602 186.838 506.602 174.724V78.2974H535.675V173.028C535.675 178.842 536.402 182.961 537.614 185.384C538.825 187.807 541.005 189.018 543.913 189.018C546.336 189.018 548.758 188.291 551.181 186.595C553.604 185.142 555.3 183.203 556.269 180.781V78.2974H585.342Z" fill="#282828"/>
<path d="M734.343 78.2974V207.431H711.569L709.146 191.683H708.419C702.362 203.555 692.913 209.612 680.557 209.612C672.077 209.612 665.778 206.704 661.66 201.132C657.541 195.56 655.603 186.838 655.603 174.724V78.2974H684.676V173.028C684.676 178.842 685.403 182.961 686.614 185.384C687.825 187.807 690.006 189.018 692.913 189.018C695.336 189.018 697.759 188.291 700.182 186.595C702.604 185.142 704.3 183.203 705.269 180.781V78.2974H734.343Z" fill="#282828"/>
<path d="M664.325 54.0696H635.494V207.189H607.147V54.0696H578.316V30.5687H664.325V54.0696Z" fill="#282828"/>
<path d="M830.527 98.8909C828.831 90.6535 825.924 84.8389 822.047 81.2047C818.171 77.5705 812.598 75.6323 805.815 75.6323C800.485 75.6323 795.397 77.086 790.793 80.2356C786.19 83.1429 782.556 87.2616 780.133 92.1072H779.891V24.0272H751.787V207.189H775.772L778.68 195.075H779.406C781.587 199.436 784.979 202.828 789.582 205.493C794.185 207.916 799.031 209.369 804.603 209.369C814.537 209.369 821.563 204.766 826.166 195.802C830.769 186.838 833.192 172.543 833.192 153.403V133.052C832.95 118.273 832.223 106.886 830.527 98.8909ZM803.876 151.465C803.876 160.914 803.392 168.182 802.665 173.512C801.938 178.842 800.485 182.719 798.789 184.899C796.85 187.08 794.428 188.291 791.52 188.291C789.097 188.291 786.917 187.807 784.979 186.595C783.041 185.384 781.345 183.688 780.133 181.508V108.34C781.102 104.948 782.798 102.041 785.221 99.6178C787.644 97.4373 790.309 96.2259 792.974 96.2259C795.881 96.2259 798.304 97.4373 799.758 99.6178C801.454 102.041 802.423 105.917 803.15 111.247C803.876 116.819 804.119 124.572 804.119 134.506V151.465H803.876Z" fill="#282828"/>
</svg>
